<svg width="288" height="62" viewBox="0 0 288 62" fill="none" xmlns="http://www.w3.org/2000/svg">
<g clip-path="url(#clip0_513_2)">
<path d="M52.0028 13.2923C55.7199 8.79053 56.0643 9.6062 50.2458 9.11809C47.356 4.56717 47.8933 4.16192 46.2063 8.37881L46.205 8.37752C46.1041 8.6261 45.9966 8.89799 45.8788 9.18671C45.836 9.29029 45.792 9.39516 45.7467 9.50262C40.0953 10.9592 40.2973 10.0904 44.7161 13.8982C44.351 19.7205 43.591 19.2661 48.5834 16.2416C48.9006 16.3672 49.1958 16.4863 49.4729 16.6002C49.5532 16.6339 49.6321 16.6676 49.7098 16.6999C49.7098 16.6986 49.7098 16.6986 49.7098 16.6974C53.9021 18.4387 53.2379 18.5397 52.0028 13.2923Z" fill="#FFAB07"/>
<path fill-rule="evenodd" clip-rule="evenodd" d="M24.5003 54.9591C14.5166 51.6994 8.58676 40.8449 8.22196 28.2145C8.23458 26.5859 7.53023 25.0739 6.37849 24.2545C5.22675 23.4363 3.80428 23.4363 2.65254 24.2545C1.5008 25.0739 0.796447 26.5859 0.809066 28.2145C1.60978 44.0713 9.82594 57.3252 22.5364 60.6028C23.3268 60.8064 24.1172 60.969 24.9064 61.0906C35.6002 63.5206 46.6082 60.9574 55.7854 53.9976C54.4433 54.954 53.0483 55.7453 51.619 56.3726C43.6532 60.3215 33.0627 60.2379 24.5003 54.9591Z" fill="white"/>
<path fill-rule="evenodd" clip-rule="evenodd" d="M11.6409 37.1218C13.0025 43.6658 16.4127 50.1782 24.4993 55.0025C33.0617 60.1105 42.9467 60.491 51.618 56.3705C42.0895 59.0419 33.0766 55.6133 25.9814 50.1782C21.449 46.9676 18.3391 41.5592 17.4833 35.3912C16.6688 29.5311 19.1389 23.5488 22.2087 18.8861C23.9274 15.3133 23.3351 12.9368 21.0225 11.6337C18.9645 10.4744 16.1924 11.1089 14.9243 13.7769C11.5448 20.8866 9.60928 29.3262 11.6409 37.1218Z" fill="#00D3C7"/>
<path fill-rule="evenodd" clip-rule="evenodd" d="M22.5112 28.3115C24.3867 20.6391 29.7841 14.842 36.4846 13.3033C38.3981 12.8301 40.3368 13.9788 41.1398 16.0631C42.0804 18.5039 41.2396 21.1927 39.1575 22.2865C34.2442 24.8721 31.2398 30.8367 31.7434 37.1673C32.2688 43.7767 36.4938 49.1704 42.0804 50.3687C47.6889 51.571 52.5826 47.5391 55.3289 42.0516C58.4308 36.355 67.0712 44.7431 60.1022 51.3927C57.9387 53.1982 55.6295 54.6672 53.225 55.7945C37.6823 62.3101 17.536 48.6557 22.5112 28.3115Z" fill="#FFAB07"/>
<path d="M43.2264 47.3786C47.8615 47.3786 51.619 43.6212 51.619 38.9861C51.619 34.351 47.8615 30.5935 43.2264 30.5935C38.5914 30.5935 34.8339 34.351 34.8339 38.9861C34.8339 43.6212 38.5914 47.3786 43.2264 47.3786Z" fill="#FFAB07"/>
<path d="M23.6491 9.30955C26.2161 9.30955 28.297 7.2286 28.297 4.66161C28.297 2.09463 26.2161 0.0136719 23.6491 0.0136719C21.0821 0.0136719 19.0012 2.09463 19.0012 4.66161C19.0012 7.2286 21.0821 9.30955 23.6491 9.30955Z" fill="#00D3C7"/>
<path d="M5.42528 19.7792C7.99227 19.7792 10.0732 17.6983 10.0732 15.1313C10.0732 12.5643 7.99227 10.4834 5.42528 10.4834C2.8583 10.4834 0.777344 12.5643 0.777344 15.1313C0.777344 17.6983 2.8583 19.7792 5.42528 19.7792Z" fill="white"/>
<path d="M86.458 22.5249V39.4864H82.5677V32.6272H74.7974V39.4864H70.9071V22.5249H74.7974V29.3323H82.5677V22.5249H86.458Z" fill="white"/>
<path d="M98.452 22.3069C101.11 22.3069 103.262 23.1772 104.909 24.9283C106.556 26.6794 107.374 28.6998 107.374 31.0207C107.374 33.3728 106.536 35.4036 104.868 37.1236C103.201 38.8435 101.059 39.7139 98.4419 39.7139C95.7945 39.7139 93.6423 38.8539 91.9851 37.1443C90.328 35.4347 89.4994 33.3831 89.4994 31.0207C89.4994 28.6998 90.328 26.669 91.975 24.9283C93.6221 23.1876 95.7844 22.3069 98.452 22.3069ZM98.452 36.1807C99.9273 36.1807 101.11 35.7041 102.019 34.7508C102.928 33.7976 103.373 32.5542 103.373 31C103.373 29.4458 102.918 28.1921 102.019 27.2492C101.12 26.3064 99.9273 25.8297 98.452 25.8297C96.9667 25.8297 95.7743 26.3064 94.875 27.2492C93.9757 28.1921 93.521 29.4458 93.521 31C93.521 32.5439 93.9757 33.7976 94.875 34.7508C95.7743 35.7041 96.9667 36.1807 98.452 36.1807Z" fill="white"/>
<path d="M124.966 34.316V38.015C123.016 39.1444 120.975 39.7039 118.833 39.7039C116.064 39.7039 113.861 38.875 112.214 37.2068C110.567 35.5386 109.749 33.4975 109.749 31.0522C109.749 28.6069 110.618 26.545 112.346 24.8458C114.073 23.1465 116.337 22.2969 119.136 22.2969C121.359 22.2969 123.248 22.7942 124.784 23.7889V27.5604C122.895 26.4 121.106 25.8197 119.409 25.8197C117.751 25.8197 116.387 26.3067 115.336 27.2703C114.286 28.2339 113.76 29.4669 113.76 30.9693C113.76 32.4717 114.276 33.715 115.316 34.6994C116.357 35.6837 117.691 36.1707 119.308 36.1707C120.116 36.1707 120.884 36.0567 121.632 35.8288C122.379 35.6008 123.491 35.0931 124.966 34.316Z" fill="white"/>
<path d="M145.812 22.5249V25.6333H137.547V39.4864H133.656V25.6333H128.008V22.5249H145.812Z" fill="#FFAB07"/>
<path d="M161.364 22.5249V39.4864H157.473V32.6272H149.703V39.4864H145.813V22.5249H149.703V29.3323H157.473V22.5249H161.364Z" fill="#FFAB07"/>
<path d="M173.357 22.3069C176.015 22.3069 178.167 23.1772 179.814 24.9283C181.461 26.6794 182.279 28.6998 182.279 31.0207C182.279 33.3728 181.441 35.4036 179.773 37.1236C178.106 38.8435 175.964 39.7139 173.347 39.7139C170.7 39.7139 168.547 38.8539 166.89 37.1443C165.233 35.4347 164.405 33.3831 164.405 31.0207C164.405 28.6998 165.233 26.669 166.88 24.9283C168.527 23.1876 170.69 22.3069 173.357 22.3069ZM173.357 36.1807C174.832 36.1807 176.015 35.7041 176.924 34.7508C177.833 33.7976 178.278 32.5542 178.278 31C178.278 29.4458 177.823 28.1921 176.924 27.2492C176.025 26.3064 174.832 25.8297 173.357 25.8297C171.872 25.8297 170.679 26.3064 169.78 27.2492C168.881 28.1921 168.426 29.4458 168.426 31C168.426 32.5439 168.881 33.7976 169.78 34.7508C170.679 35.7041 171.872 36.1807 173.357 36.1807Z" fill="#FFAB07"/>
<path d="M201.125 22.5249V39.4864H197.841L189.232 28.6174V39.4864H185.341V22.5249H188.908L197.245 32.8966V22.5249H201.125Z" fill="#FFAB07"/>
<path d="M219.757 23.6953V27.3943C217.767 26.3478 215.827 25.8297 213.927 25.8297C212.098 25.8297 210.683 26.327 209.693 27.3321C208.703 28.3371 208.208 29.6116 208.208 31.1658C208.208 32.6578 208.703 33.8597 209.693 34.7819C210.683 35.704 211.987 36.1703 213.604 36.1703C214.462 36.1703 215.321 35.9631 216.18 35.559V33.58H213.927V30.4716H220.081V37.4033C219.464 38.0768 218.524 38.6259 217.261 39.0507C215.998 39.4756 214.745 39.6931 213.513 39.6931C210.795 39.6931 208.561 38.8746 206.813 37.2479C205.065 35.6211 204.196 33.5385 204.196 31.0207C204.196 28.4511 205.065 26.3478 206.813 24.721C208.561 23.0943 210.825 22.2861 213.604 22.2861C215.897 22.3069 217.949 22.7731 219.757 23.6953Z" fill="#FFAB07"/>
<path d="M232.085 28.8142L237.096 22.5249H240.471V39.4864H236.581V28.8971L232.367 34.2125H231.781L227.568 28.8971V39.4864H223.678V22.5249H227.053L232.085 28.8142Z" fill="#FFAB07"/>
<path d="M248.181 22.5249V39.4864H244.291V22.5249H248.181Z" fill="#FFAB07"/>
<path d="M267.814 22.5249V39.4864H264.53L255.921 28.6174V39.4864H252.031V22.5249H255.598L263.934 32.8966V22.5249H267.814Z" fill="#FFAB07"/>
<path d="M287.124 22.5249V39.4864H283.233V32.6272H275.463V39.4864H271.573V22.5249H275.463V29.3323H283.233V22.5249H287.124Z" fill="#FFAB07"/>
</g>
<defs>
<clipPath id="clip0_513_2">
<rect width="288" height="62" fill="white"/>
</clipPath>
</defs>
</svg>